<svg width="50" height="50" xmlns="http://www.w3.org/2000/svg">

 <g>
  <title>background</title>
  <rect fill="none" id="canvas_background" height="402" width="582" y="-1" x="-1"/>
 </g>
 <g>
  <title>Layer 1</title>
  <path id="svg_1" fill="#757575" d="m38.084,7.398c-8.531,-8.53 -22.36,-8.53 -30.89,0c-8.53,8.53 -8.53,22.36 0,30.89c7.331,7.33 18.566,8.341 26.998,3.074l8.132,8.13c1.757,1.756 4.604,1.756 6.359,0c1.757,-1.757 1.757,-4.603 0,-6.357l-8.002,-8c5.805,-8.505 4.948,-20.192 -2.597,-27.737zm-5.452,25.438c-5.518,5.52 -14.467,5.52 -19.986,0c-5.519,-5.519 -5.519,-14.468 0,-19.988c5.519,-5.518 14.468,-5.518 19.986,0c5.522,5.52 5.522,14.469 0,19.988z"/>
 </g>
</svg>